<mxfile host="app.diagrams.net" modified="2023-06-12T12:40:12.444Z" agent="Mozilla/5.0 (Windows NT 10.0; Win64; x64) AppleWebKit/537.36 (KHTML, like Gecko) Chrome/114.0.0.0 Safari/537.36" etag="6ezKQ1gWCqvlNaxXvtVs" version="21.3.8" type="device">
  <diagram name="Page-1" id="8BPoMCp2TiOr8Bzh_alm">
    <mxGraphModel dx="1836" dy="3094" grid="1" gridSize="10" guides="1" tooltips="1" connect="1" arrows="1" fold="1" page="1" pageScale="1" pageWidth="1654" pageHeight="2336" math="0" shadow="0">
      <root>
        <mxCell id="0" />
        <mxCell id="1" parent="0" />
        <mxCell id="gNELy4mMwM59_GkufHWA-8" value="" style="rounded=0;whiteSpace=wrap;html=1;" parent="1" vertex="1">
          <mxGeometry x="310" y="-20" width="900" height="2250" as="geometry" />
        </mxCell>
        <mxCell id="gNELy4mMwM59_GkufHWA-6" value="" style="rounded=0;whiteSpace=wrap;html=1;" parent="1" vertex="1">
          <mxGeometry x="120" y="-20" width="290" height="2250" as="geometry" />
        </mxCell>
        <mxCell id="aJfpyKUW2YPCSOBfN6xH-2" style="edgeStyle=orthogonalEdgeStyle;rounded=0;orthogonalLoop=1;jettySize=auto;html=1;exitX=1;exitY=0.5;exitDx=0;exitDy=0;entryX=0;entryY=0.5;entryDx=0;entryDy=0;" parent="1" source="gNELy4mMwM59_GkufHWA-3" edge="1" target="aJfpyKUW2YPCSOBfN6xH-4">
          <mxGeometry relative="1" as="geometry">
            <mxPoint x="370" y="235" as="targetPoint" />
            <Array as="points">
              <mxPoint x="380" y="425" />
              <mxPoint x="380" y="240" />
            </Array>
          </mxGeometry>
        </mxCell>
        <mxCell id="gNELy4mMwM59_GkufHWA-3" value="Start new forum&amp;nbsp;&lt;br&gt;(Guest, Location, Comment)" style="rounded=1;whiteSpace=wrap;html=1;" parent="1" vertex="1">
          <mxGeometry x="130" y="380" width="120" height="90" as="geometry" />
        </mxCell>
        <mxCell id="gNELy4mMwM59_GkufHWA-7" value="Guest1" style="text;html=1;strokeColor=none;fillColor=none;align=center;verticalAlign=middle;whiteSpace=wrap;rounded=0;" parent="1" vertex="1">
          <mxGeometry x="122.5" y="-20" width="60" height="30" as="geometry" />
        </mxCell>
        <mxCell id="gNELy4mMwM59_GkufHWA-9" value="System" style="text;html=1;strokeColor=none;fillColor=none;align=center;verticalAlign=middle;whiteSpace=wrap;rounded=0;" parent="1" vertex="1">
          <mxGeometry x="405" y="-20" width="60" height="30" as="geometry" />
        </mxCell>
        <mxCell id="gNELy4mMwM59_GkufHWA-11" value="" style="rounded=0;whiteSpace=wrap;html=1;" parent="1" vertex="1">
          <mxGeometry x="1210" y="-20" width="190" height="2250" as="geometry" />
        </mxCell>
        <mxCell id="-ve8lsEsOyCSf-6zEsDF-9" value="Owner" style="text;html=1;strokeColor=none;fillColor=none;align=center;verticalAlign=middle;whiteSpace=wrap;rounded=0;" parent="1" vertex="1">
          <mxGeometry x="1210" y="-20" width="60" height="30" as="geometry" />
        </mxCell>
        <mxCell id="aJfpyKUW2YPCSOBfN6xH-3" style="edgeStyle=orthogonalEdgeStyle;rounded=0;orthogonalLoop=1;jettySize=auto;html=1;exitX=0.5;exitY=1;exitDx=0;exitDy=0;" parent="1" source="gNELy4mMwM59_GkufHWA-8" target="gNELy4mMwM59_GkufHWA-8" edge="1">
          <mxGeometry relative="1" as="geometry" />
        </mxCell>
        <mxCell id="9QfkAVzxC6964V-UPMeg-299" style="edgeStyle=orthogonalEdgeStyle;rounded=0;orthogonalLoop=1;jettySize=auto;html=1;exitX=0.5;exitY=0;exitDx=0;exitDy=0;entryX=0.5;entryY=1;entryDx=0;entryDy=0;" edge="1" parent="1" source="aJfpyKUW2YPCSOBfN6xH-4" target="9QfkAVzxC6964V-UPMeg-298">
          <mxGeometry relative="1" as="geometry" />
        </mxCell>
        <mxCell id="aJfpyKUW2YPCSOBfN6xH-4" value="Create forum" style="rounded=1;whiteSpace=wrap;html=1;" parent="1" vertex="1">
          <mxGeometry x="430" y="195" width="120" height="90" as="geometry" />
        </mxCell>
        <mxCell id="9QfkAVzxC6964V-UPMeg-312" style="edgeStyle=orthogonalEdgeStyle;rounded=0;orthogonalLoop=1;jettySize=auto;html=1;exitX=1;exitY=0.5;exitDx=0;exitDy=0;entryX=0;entryY=0.5;entryDx=0;entryDy=0;entryPerimeter=0;" edge="1" parent="1" source="9QfkAVzxC6964V-UPMeg-1" target="9QfkAVzxC6964V-UPMeg-311">
          <mxGeometry relative="1" as="geometry" />
        </mxCell>
        <mxCell id="9QfkAVzxC6964V-UPMeg-1" value="Send notification&lt;br&gt;to owner" style="rounded=1;whiteSpace=wrap;html=1;" vertex="1" parent="1">
          <mxGeometry x="740" y="70" width="120" height="90" as="geometry" />
        </mxCell>
        <mxCell id="9QfkAVzxC6964V-UPMeg-202" style="edgeStyle=orthogonalEdgeStyle;rounded=0;orthogonalLoop=1;jettySize=auto;html=1;exitX=0.5;exitY=1;exitDx=0;exitDy=0;entryX=0.5;entryY=0;entryDx=0;entryDy=0;" edge="1" parent="1" source="9QfkAVzxC6964V-UPMeg-5" target="9QfkAVzxC6964V-UPMeg-200">
          <mxGeometry relative="1" as="geometry" />
        </mxCell>
        <mxCell id="9QfkAVzxC6964V-UPMeg-5" value="Recieve information" style="rounded=1;whiteSpace=wrap;html=1;" vertex="1" parent="1">
          <mxGeometry x="1245" y="70" width="120" height="90" as="geometry" />
        </mxCell>
        <mxCell id="9QfkAVzxC6964V-UPMeg-318" style="edgeStyle=orthogonalEdgeStyle;rounded=0;orthogonalLoop=1;jettySize=auto;html=1;exitX=1;exitY=0.5;exitDx=0;exitDy=0;entryX=0;entryY=0.5;entryDx=0;entryDy=0;" edge="1" parent="1" source="9QfkAVzxC6964V-UPMeg-7" target="9QfkAVzxC6964V-UPMeg-266">
          <mxGeometry relative="1" as="geometry" />
        </mxCell>
        <mxCell id="9QfkAVzxC6964V-UPMeg-7" value="Store data" style="rounded=1;whiteSpace=wrap;html=1;" vertex="1" parent="1">
          <mxGeometry x="740" y="330" width="120" height="90" as="geometry" />
        </mxCell>
        <mxCell id="9QfkAVzxC6964V-UPMeg-141" style="edgeStyle=orthogonalEdgeStyle;rounded=0;orthogonalLoop=1;jettySize=auto;html=1;exitX=1;exitY=0.5;exitDx=0;exitDy=0;entryX=0;entryY=0.5;entryDx=0;entryDy=0;" edge="1" parent="1" source="9QfkAVzxC6964V-UPMeg-10" target="9QfkAVzxC6964V-UPMeg-140">
          <mxGeometry relative="1" as="geometry" />
        </mxCell>
        <mxCell id="9QfkAVzxC6964V-UPMeg-10" value="Open forum" style="rounded=1;whiteSpace=wrap;html=1;" vertex="1" parent="1">
          <mxGeometry x="260" y="490" width="120" height="90" as="geometry" />
        </mxCell>
        <mxCell id="9QfkAVzxC6964V-UPMeg-89" style="edgeStyle=orthogonalEdgeStyle;rounded=0;orthogonalLoop=1;jettySize=auto;html=1;exitX=0.5;exitY=1;exitDx=0;exitDy=0;entryX=0.5;entryY=0;entryDx=0;entryDy=0;entryPerimeter=0;" edge="1" parent="1" source="9QfkAVzxC6964V-UPMeg-11" target="9QfkAVzxC6964V-UPMeg-88">
          <mxGeometry relative="1" as="geometry" />
        </mxCell>
        <mxCell id="9QfkAVzxC6964V-UPMeg-11" value="Check if my forum" style="rounded=1;whiteSpace=wrap;html=1;" vertex="1" parent="1">
          <mxGeometry x="490" y="490" width="120" height="90" as="geometry" />
        </mxCell>
        <mxCell id="9QfkAVzxC6964V-UPMeg-55" value="Visited?" style="text;html=1;strokeColor=none;fillColor=none;align=center;verticalAlign=middle;whiteSpace=wrap;rounded=0;" vertex="1" parent="1">
          <mxGeometry x="620" y="1890" width="60" height="30" as="geometry" />
        </mxCell>
        <mxCell id="9QfkAVzxC6964V-UPMeg-59" value="Yes" style="text;html=1;strokeColor=none;fillColor=none;align=center;verticalAlign=middle;whiteSpace=wrap;rounded=0;" vertex="1" parent="1">
          <mxGeometry x="640" y="1795" width="60" height="30" as="geometry" />
        </mxCell>
        <mxCell id="9QfkAVzxC6964V-UPMeg-65" value="No" style="text;html=1;strokeColor=none;fillColor=none;align=center;verticalAlign=middle;whiteSpace=wrap;rounded=0;" vertex="1" parent="1">
          <mxGeometry x="667" y="1845" width="60" height="30" as="geometry" />
        </mxCell>
        <mxCell id="9QfkAVzxC6964V-UPMeg-69" value="Useful?" style="text;html=1;strokeColor=none;fillColor=none;align=center;verticalAlign=middle;whiteSpace=wrap;rounded=0;" vertex="1" parent="1">
          <mxGeometry x="990" y="2035" width="60" height="30" as="geometry" />
        </mxCell>
        <mxCell id="9QfkAVzxC6964V-UPMeg-73" value="Yes" style="text;html=1;strokeColor=none;fillColor=none;align=center;verticalAlign=middle;whiteSpace=wrap;rounded=0;" vertex="1" parent="1">
          <mxGeometry x="950" y="2080" width="60" height="30" as="geometry" />
        </mxCell>
        <mxCell id="9QfkAVzxC6964V-UPMeg-80" value="[create]" style="text;html=1;strokeColor=none;fillColor=none;align=center;verticalAlign=middle;whiteSpace=wrap;rounded=0;" vertex="1" parent="1">
          <mxGeometry x="160" y="225" width="60" height="30" as="geometry" />
        </mxCell>
        <mxCell id="9QfkAVzxC6964V-UPMeg-81" value="" style="ellipse;html=1;shape=startState;fillColor=#000000;strokeColor=#ff0000;" vertex="1" parent="1">
          <mxGeometry x="220" width="30" height="30" as="geometry" />
        </mxCell>
        <mxCell id="9QfkAVzxC6964V-UPMeg-82" value="" style="edgeStyle=orthogonalEdgeStyle;html=1;verticalAlign=bottom;endArrow=open;endSize=8;strokeColor=#ff0000;rounded=0;" edge="1" source="9QfkAVzxC6964V-UPMeg-81" parent="1">
          <mxGeometry relative="1" as="geometry">
            <mxPoint x="235" y="80" as="targetPoint" />
          </mxGeometry>
        </mxCell>
        <mxCell id="9QfkAVzxC6964V-UPMeg-84" style="edgeStyle=orthogonalEdgeStyle;rounded=0;orthogonalLoop=1;jettySize=auto;html=1;exitX=0;exitY=0.5;exitDx=0;exitDy=0;exitPerimeter=0;entryX=0.5;entryY=0;entryDx=0;entryDy=0;" edge="1" parent="1" source="9QfkAVzxC6964V-UPMeg-83" target="gNELy4mMwM59_GkufHWA-3">
          <mxGeometry relative="1" as="geometry" />
        </mxCell>
        <mxCell id="9QfkAVzxC6964V-UPMeg-87" style="edgeStyle=orthogonalEdgeStyle;rounded=0;orthogonalLoop=1;jettySize=auto;html=1;exitX=1;exitY=0.5;exitDx=0;exitDy=0;exitPerimeter=0;" edge="1" parent="1" source="9QfkAVzxC6964V-UPMeg-83" target="9QfkAVzxC6964V-UPMeg-10">
          <mxGeometry relative="1" as="geometry" />
        </mxCell>
        <mxCell id="9QfkAVzxC6964V-UPMeg-83" value="" style="strokeWidth=2;html=1;shape=mxgraph.flowchart.decision;whiteSpace=wrap;" vertex="1" parent="1">
          <mxGeometry x="212.5" y="240" width="45" height="40" as="geometry" />
        </mxCell>
        <mxCell id="9QfkAVzxC6964V-UPMeg-86" value="[open forum]" style="text;html=1;strokeColor=none;fillColor=none;align=center;verticalAlign=middle;whiteSpace=wrap;rounded=0;" vertex="1" parent="1">
          <mxGeometry x="270" y="220" width="60" height="30" as="geometry" />
        </mxCell>
        <mxCell id="9QfkAVzxC6964V-UPMeg-94" style="edgeStyle=orthogonalEdgeStyle;rounded=0;orthogonalLoop=1;jettySize=auto;html=1;exitX=0.5;exitY=1;exitDx=0;exitDy=0;exitPerimeter=0;entryX=0.5;entryY=0;entryDx=0;entryDy=0;" edge="1" parent="1" source="9QfkAVzxC6964V-UPMeg-88" target="9QfkAVzxC6964V-UPMeg-91">
          <mxGeometry relative="1" as="geometry" />
        </mxCell>
        <mxCell id="9QfkAVzxC6964V-UPMeg-102" style="edgeStyle=orthogonalEdgeStyle;rounded=0;orthogonalLoop=1;jettySize=auto;html=1;exitX=1;exitY=0.5;exitDx=0;exitDy=0;exitPerimeter=0;entryX=0;entryY=0.5;entryDx=0;entryDy=0;" edge="1" parent="1" source="9QfkAVzxC6964V-UPMeg-88" target="9QfkAVzxC6964V-UPMeg-101">
          <mxGeometry relative="1" as="geometry" />
        </mxCell>
        <mxCell id="9QfkAVzxC6964V-UPMeg-88" value="" style="strokeWidth=2;html=1;shape=mxgraph.flowchart.decision;whiteSpace=wrap;" vertex="1" parent="1">
          <mxGeometry x="520" y="630" width="60" height="60" as="geometry" />
        </mxCell>
        <mxCell id="9QfkAVzxC6964V-UPMeg-90" value="My forum?" style="text;html=1;strokeColor=none;fillColor=none;align=center;verticalAlign=middle;whiteSpace=wrap;rounded=0;" vertex="1" parent="1">
          <mxGeometry x="440" y="645" width="60" height="30" as="geometry" />
        </mxCell>
        <mxCell id="9QfkAVzxC6964V-UPMeg-95" style="edgeStyle=orthogonalEdgeStyle;rounded=0;orthogonalLoop=1;jettySize=auto;html=1;exitX=0.5;exitY=1;exitDx=0;exitDy=0;entryX=0.5;entryY=0;entryDx=0;entryDy=0;entryPerimeter=0;" edge="1" parent="1" source="9QfkAVzxC6964V-UPMeg-91" target="9QfkAVzxC6964V-UPMeg-92">
          <mxGeometry relative="1" as="geometry" />
        </mxCell>
        <mxCell id="9QfkAVzxC6964V-UPMeg-91" value="Check if opened" style="rounded=1;whiteSpace=wrap;html=1;" vertex="1" parent="1">
          <mxGeometry x="490" y="740" width="120" height="90" as="geometry" />
        </mxCell>
        <mxCell id="9QfkAVzxC6964V-UPMeg-96" style="edgeStyle=orthogonalEdgeStyle;rounded=0;orthogonalLoop=1;jettySize=auto;html=1;exitX=0.5;exitY=1;exitDx=0;exitDy=0;exitPerimeter=0;entryX=0.5;entryY=0;entryDx=0;entryDy=0;" edge="1" parent="1" source="9QfkAVzxC6964V-UPMeg-92" target="9QfkAVzxC6964V-UPMeg-93">
          <mxGeometry relative="1" as="geometry" />
        </mxCell>
        <mxCell id="9QfkAVzxC6964V-UPMeg-112" style="edgeStyle=orthogonalEdgeStyle;rounded=0;orthogonalLoop=1;jettySize=auto;html=1;exitX=1;exitY=0.5;exitDx=0;exitDy=0;exitPerimeter=0;" edge="1" parent="1" source="9QfkAVzxC6964V-UPMeg-92" target="9QfkAVzxC6964V-UPMeg-111">
          <mxGeometry relative="1" as="geometry" />
        </mxCell>
        <mxCell id="9QfkAVzxC6964V-UPMeg-92" value="" style="strokeWidth=2;html=1;shape=mxgraph.flowchart.decision;whiteSpace=wrap;" vertex="1" parent="1">
          <mxGeometry x="520" y="870" width="60" height="60" as="geometry" />
        </mxCell>
        <mxCell id="9QfkAVzxC6964V-UPMeg-263" style="edgeStyle=orthogonalEdgeStyle;rounded=0;orthogonalLoop=1;jettySize=auto;html=1;exitX=0;exitY=0.5;exitDx=0;exitDy=0;entryX=1;entryY=0.5;entryDx=0;entryDy=0;entryPerimeter=0;" edge="1" parent="1" source="9QfkAVzxC6964V-UPMeg-93" target="9QfkAVzxC6964V-UPMeg-262">
          <mxGeometry relative="1" as="geometry" />
        </mxCell>
        <mxCell id="9QfkAVzxC6964V-UPMeg-93" value="Set view for my opened forum" style="rounded=1;whiteSpace=wrap;html=1;" vertex="1" parent="1">
          <mxGeometry x="490" y="970" width="120" height="90" as="geometry" />
        </mxCell>
        <mxCell id="9QfkAVzxC6964V-UPMeg-97" value="Opened?" style="text;html=1;strokeColor=none;fillColor=none;align=center;verticalAlign=middle;whiteSpace=wrap;rounded=0;" vertex="1" parent="1">
          <mxGeometry x="450" y="885" width="60" height="30" as="geometry" />
        </mxCell>
        <mxCell id="9QfkAVzxC6964V-UPMeg-99" value="Yes" style="text;html=1;strokeColor=none;fillColor=none;align=center;verticalAlign=middle;whiteSpace=wrap;rounded=0;" vertex="1" parent="1">
          <mxGeometry x="540" y="700" width="60" height="30" as="geometry" />
        </mxCell>
        <mxCell id="9QfkAVzxC6964V-UPMeg-100" value="Yes" style="text;html=1;strokeColor=none;fillColor=none;align=center;verticalAlign=middle;whiteSpace=wrap;rounded=0;" vertex="1" parent="1">
          <mxGeometry x="560" y="920" width="60" height="30" as="geometry" />
        </mxCell>
        <mxCell id="9QfkAVzxC6964V-UPMeg-138" style="edgeStyle=orthogonalEdgeStyle;rounded=0;orthogonalLoop=1;jettySize=auto;html=1;exitX=0.75;exitY=1;exitDx=0;exitDy=0;entryX=0.5;entryY=0;entryDx=0;entryDy=0;entryPerimeter=0;" edge="1" parent="1" source="9QfkAVzxC6964V-UPMeg-101" target="9QfkAVzxC6964V-UPMeg-104">
          <mxGeometry relative="1" as="geometry" />
        </mxCell>
        <mxCell id="9QfkAVzxC6964V-UPMeg-101" value="Check if opened" style="rounded=1;whiteSpace=wrap;html=1;" vertex="1" parent="1">
          <mxGeometry x="740" y="615" width="120" height="90" as="geometry" />
        </mxCell>
        <mxCell id="9QfkAVzxC6964V-UPMeg-103" value="No" style="text;html=1;strokeColor=none;fillColor=none;align=center;verticalAlign=middle;whiteSpace=wrap;rounded=0;" vertex="1" parent="1">
          <mxGeometry x="570" y="630" width="60" height="30" as="geometry" />
        </mxCell>
        <mxCell id="9QfkAVzxC6964V-UPMeg-136" style="edgeStyle=orthogonalEdgeStyle;rounded=0;orthogonalLoop=1;jettySize=auto;html=1;exitX=0.5;exitY=1;exitDx=0;exitDy=0;exitPerimeter=0;entryX=0.5;entryY=0;entryDx=0;entryDy=0;" edge="1" parent="1" source="9QfkAVzxC6964V-UPMeg-104" target="9QfkAVzxC6964V-UPMeg-114">
          <mxGeometry relative="1" as="geometry" />
        </mxCell>
        <mxCell id="9QfkAVzxC6964V-UPMeg-137" style="edgeStyle=orthogonalEdgeStyle;rounded=0;orthogonalLoop=1;jettySize=auto;html=1;exitX=1;exitY=0.5;exitDx=0;exitDy=0;exitPerimeter=0;entryX=0.5;entryY=0;entryDx=0;entryDy=0;" edge="1" parent="1" source="9QfkAVzxC6964V-UPMeg-104" target="9QfkAVzxC6964V-UPMeg-108">
          <mxGeometry relative="1" as="geometry" />
        </mxCell>
        <mxCell id="9QfkAVzxC6964V-UPMeg-104" value="" style="strokeWidth=2;html=1;shape=mxgraph.flowchart.decision;whiteSpace=wrap;" vertex="1" parent="1">
          <mxGeometry x="800" y="800" width="60" height="60" as="geometry" />
        </mxCell>
        <mxCell id="9QfkAVzxC6964V-UPMeg-107" value="Opened?" style="text;html=1;strokeColor=none;fillColor=none;align=center;verticalAlign=middle;whiteSpace=wrap;rounded=0;" vertex="1" parent="1">
          <mxGeometry x="740" y="815" width="60" height="30" as="geometry" />
        </mxCell>
        <mxCell id="9QfkAVzxC6964V-UPMeg-156" style="edgeStyle=orthogonalEdgeStyle;rounded=0;orthogonalLoop=1;jettySize=auto;html=1;exitX=0.5;exitY=1;exitDx=0;exitDy=0;entryX=1;entryY=0.5;entryDx=0;entryDy=0;" edge="1" parent="1" source="9QfkAVzxC6964V-UPMeg-108" target="9QfkAVzxC6964V-UPMeg-147">
          <mxGeometry relative="1" as="geometry" />
        </mxCell>
        <mxCell id="9QfkAVzxC6964V-UPMeg-108" value="Set view for not my opened forum" style="rounded=1;whiteSpace=wrap;html=1;" vertex="1" parent="1">
          <mxGeometry x="910" y="970" width="120" height="90" as="geometry" />
        </mxCell>
        <mxCell id="9QfkAVzxC6964V-UPMeg-110" value="Yes" style="text;html=1;strokeColor=none;fillColor=none;align=center;verticalAlign=middle;whiteSpace=wrap;rounded=0;" vertex="1" parent="1">
          <mxGeometry x="850" y="800" width="60" height="30" as="geometry" />
        </mxCell>
        <mxCell id="9QfkAVzxC6964V-UPMeg-144" style="edgeStyle=orthogonalEdgeStyle;rounded=0;orthogonalLoop=1;jettySize=auto;html=1;exitX=0.5;exitY=1;exitDx=0;exitDy=0;entryX=0;entryY=0.5;entryDx=0;entryDy=0;entryPerimeter=0;" edge="1" parent="1" source="9QfkAVzxC6964V-UPMeg-111" target="9QfkAVzxC6964V-UPMeg-143">
          <mxGeometry relative="1" as="geometry" />
        </mxCell>
        <mxCell id="9QfkAVzxC6964V-UPMeg-111" value="Set view for my closed forum" style="rounded=1;whiteSpace=wrap;html=1;" vertex="1" parent="1">
          <mxGeometry x="630" y="970" width="120" height="90" as="geometry" />
        </mxCell>
        <mxCell id="9QfkAVzxC6964V-UPMeg-113" value="No" style="text;html=1;strokeColor=none;fillColor=none;align=center;verticalAlign=middle;whiteSpace=wrap;rounded=0;" vertex="1" parent="1">
          <mxGeometry x="560" y="870" width="60" height="30" as="geometry" />
        </mxCell>
        <mxCell id="9QfkAVzxC6964V-UPMeg-145" style="edgeStyle=orthogonalEdgeStyle;rounded=0;orthogonalLoop=1;jettySize=auto;html=1;exitX=0.5;exitY=1;exitDx=0;exitDy=0;entryX=1;entryY=0.5;entryDx=0;entryDy=0;entryPerimeter=0;" edge="1" parent="1" source="9QfkAVzxC6964V-UPMeg-114" target="9QfkAVzxC6964V-UPMeg-143">
          <mxGeometry relative="1" as="geometry" />
        </mxCell>
        <mxCell id="9QfkAVzxC6964V-UPMeg-114" value="Set view for not my closed forum" style="rounded=1;whiteSpace=wrap;html=1;" vertex="1" parent="1">
          <mxGeometry x="770" y="970" width="120" height="90" as="geometry" />
        </mxCell>
        <mxCell id="9QfkAVzxC6964V-UPMeg-116" value="No" style="text;html=1;strokeColor=none;fillColor=none;align=center;verticalAlign=middle;whiteSpace=wrap;rounded=0;" vertex="1" parent="1">
          <mxGeometry x="780" y="860" width="60" height="30" as="geometry" />
        </mxCell>
        <mxCell id="9QfkAVzxC6964V-UPMeg-120" style="edgeStyle=orthogonalEdgeStyle;rounded=0;orthogonalLoop=1;jettySize=auto;html=1;exitX=0.5;exitY=1;exitDx=0;exitDy=0;entryX=0.5;entryY=0;entryDx=0;entryDy=0;entryPerimeter=0;" edge="1" parent="1" source="9QfkAVzxC6964V-UPMeg-117" target="9QfkAVzxC6964V-UPMeg-119">
          <mxGeometry relative="1" as="geometry" />
        </mxCell>
        <mxCell id="9QfkAVzxC6964V-UPMeg-117" value="View for my opened forum" style="rounded=1;whiteSpace=wrap;html=1;" vertex="1" parent="1">
          <mxGeometry x="212.5" y="970" width="120" height="90" as="geometry" />
        </mxCell>
        <mxCell id="9QfkAVzxC6964V-UPMeg-148" style="edgeStyle=orthogonalEdgeStyle;rounded=0;orthogonalLoop=1;jettySize=auto;html=1;exitX=0.5;exitY=1;exitDx=0;exitDy=0;exitPerimeter=0;entryX=0.5;entryY=0;entryDx=0;entryDy=0;" edge="1" parent="1" source="9QfkAVzxC6964V-UPMeg-119" target="9QfkAVzxC6964V-UPMeg-124">
          <mxGeometry relative="1" as="geometry" />
        </mxCell>
        <mxCell id="9QfkAVzxC6964V-UPMeg-158" style="edgeStyle=orthogonalEdgeStyle;rounded=0;orthogonalLoop=1;jettySize=auto;html=1;exitX=1;exitY=0.5;exitDx=0;exitDy=0;exitPerimeter=0;entryX=0;entryY=0.5;entryDx=0;entryDy=0;" edge="1" parent="1" source="9QfkAVzxC6964V-UPMeg-119" target="9QfkAVzxC6964V-UPMeg-157">
          <mxGeometry relative="1" as="geometry" />
        </mxCell>
        <mxCell id="9QfkAVzxC6964V-UPMeg-204" style="edgeStyle=orthogonalEdgeStyle;rounded=0;orthogonalLoop=1;jettySize=auto;html=1;exitX=0;exitY=0.5;exitDx=0;exitDy=0;exitPerimeter=0;entryX=1;entryY=0.5;entryDx=0;entryDy=0;" edge="1" parent="1" source="9QfkAVzxC6964V-UPMeg-119" target="9QfkAVzxC6964V-UPMeg-203">
          <mxGeometry relative="1" as="geometry" />
        </mxCell>
        <mxCell id="9QfkAVzxC6964V-UPMeg-119" value="" style="strokeWidth=2;html=1;shape=mxgraph.flowchart.decision;whiteSpace=wrap;" vertex="1" parent="1">
          <mxGeometry x="242.5" y="1108" width="60" height="60" as="geometry" />
        </mxCell>
        <mxCell id="9QfkAVzxC6964V-UPMeg-121" value="[close]" style="text;html=1;strokeColor=none;fillColor=none;align=center;verticalAlign=middle;whiteSpace=wrap;rounded=0;" vertex="1" parent="1">
          <mxGeometry x="205" y="1168" width="60" height="30" as="geometry" />
        </mxCell>
        <mxCell id="9QfkAVzxC6964V-UPMeg-122" value="[comment]" style="text;html=1;strokeColor=none;fillColor=none;align=center;verticalAlign=middle;whiteSpace=wrap;rounded=0;" vertex="1" parent="1">
          <mxGeometry x="310" y="1090" width="60" height="30" as="geometry" />
        </mxCell>
        <mxCell id="9QfkAVzxC6964V-UPMeg-127" style="edgeStyle=orthogonalEdgeStyle;rounded=0;orthogonalLoop=1;jettySize=auto;html=1;exitX=1;exitY=0.5;exitDx=0;exitDy=0;entryX=0;entryY=0.5;entryDx=0;entryDy=0;" edge="1" parent="1" source="9QfkAVzxC6964V-UPMeg-124" target="9QfkAVzxC6964V-UPMeg-126">
          <mxGeometry relative="1" as="geometry" />
        </mxCell>
        <mxCell id="9QfkAVzxC6964V-UPMeg-124" value="Close forum" style="rounded=1;whiteSpace=wrap;html=1;" vertex="1" parent="1">
          <mxGeometry x="212.5" y="1230" width="120" height="90" as="geometry" />
        </mxCell>
        <mxCell id="9QfkAVzxC6964V-UPMeg-129" style="edgeStyle=orthogonalEdgeStyle;rounded=0;orthogonalLoop=1;jettySize=auto;html=1;exitX=1;exitY=0.5;exitDx=0;exitDy=0;entryX=0;entryY=0.5;entryDx=0;entryDy=0;" edge="1" parent="1" source="9QfkAVzxC6964V-UPMeg-126" target="9QfkAVzxC6964V-UPMeg-128">
          <mxGeometry relative="1" as="geometry" />
        </mxCell>
        <mxCell id="9QfkAVzxC6964V-UPMeg-126" value="Update forum to closed" style="rounded=1;whiteSpace=wrap;html=1;" vertex="1" parent="1">
          <mxGeometry x="430" y="1230" width="120" height="90" as="geometry" />
        </mxCell>
        <mxCell id="9QfkAVzxC6964V-UPMeg-128" value="A" style="ellipse;whiteSpace=wrap;html=1;aspect=fixed;" vertex="1" parent="1">
          <mxGeometry x="580" y="1255" width="40" height="40" as="geometry" />
        </mxCell>
        <mxCell id="9QfkAVzxC6964V-UPMeg-237" style="edgeStyle=orthogonalEdgeStyle;rounded=0;orthogonalLoop=1;jettySize=auto;html=1;exitX=0;exitY=0.5;exitDx=0;exitDy=0;entryX=1;entryY=0.5;entryDx=0;entryDy=0;" edge="1" parent="1" source="9QfkAVzxC6964V-UPMeg-133" target="9QfkAVzxC6964V-UPMeg-236">
          <mxGeometry relative="1" as="geometry" />
        </mxCell>
        <mxCell id="9QfkAVzxC6964V-UPMeg-133" value="View for closed forum" style="rounded=1;whiteSpace=wrap;html=1;" vertex="1" parent="1">
          <mxGeometry x="212.5" y="1380" width="120" height="90" as="geometry" />
        </mxCell>
        <mxCell id="9QfkAVzxC6964V-UPMeg-226" style="edgeStyle=orthogonalEdgeStyle;rounded=0;orthogonalLoop=1;jettySize=auto;html=1;exitX=0.5;exitY=1;exitDx=0;exitDy=0;entryX=0.5;entryY=0;entryDx=0;entryDy=0;" edge="1" parent="1" source="9QfkAVzxC6964V-UPMeg-140" target="9QfkAVzxC6964V-UPMeg-11">
          <mxGeometry relative="1" as="geometry" />
        </mxCell>
        <mxCell id="9QfkAVzxC6964V-UPMeg-140" value="Check if useful forum" style="rounded=1;whiteSpace=wrap;html=1;" vertex="1" parent="1">
          <mxGeometry x="490" y="370" width="120" height="90" as="geometry" />
        </mxCell>
        <mxCell id="9QfkAVzxC6964V-UPMeg-146" style="edgeStyle=orthogonalEdgeStyle;rounded=0;orthogonalLoop=1;jettySize=auto;html=1;exitX=0.5;exitY=1;exitDx=0;exitDy=0;exitPerimeter=0;entryX=1;entryY=0.5;entryDx=0;entryDy=0;" edge="1" parent="1" source="9QfkAVzxC6964V-UPMeg-143" target="9QfkAVzxC6964V-UPMeg-133">
          <mxGeometry relative="1" as="geometry" />
        </mxCell>
        <mxCell id="9QfkAVzxC6964V-UPMeg-143" value="" style="strokeWidth=2;html=1;shape=mxgraph.flowchart.decision;whiteSpace=wrap;" vertex="1" parent="1">
          <mxGeometry x="740" y="1160" width="60" height="60" as="geometry" />
        </mxCell>
        <mxCell id="9QfkAVzxC6964V-UPMeg-155" style="edgeStyle=orthogonalEdgeStyle;rounded=0;orthogonalLoop=1;jettySize=auto;html=1;exitX=0.5;exitY=1;exitDx=0;exitDy=0;entryX=0.5;entryY=0;entryDx=0;entryDy=0;entryPerimeter=0;" edge="1" parent="1" source="9QfkAVzxC6964V-UPMeg-147" target="9QfkAVzxC6964V-UPMeg-152">
          <mxGeometry relative="1" as="geometry" />
        </mxCell>
        <mxCell id="9QfkAVzxC6964V-UPMeg-147" value="View for not my opened forum" style="rounded=1;whiteSpace=wrap;html=1;" vertex="1" parent="1">
          <mxGeometry x="212.5" y="1520" width="120" height="90" as="geometry" />
        </mxCell>
        <mxCell id="9QfkAVzxC6964V-UPMeg-150" value="[go back]" style="text;html=1;strokeColor=none;fillColor=none;align=center;verticalAlign=middle;whiteSpace=wrap;rounded=0;" vertex="1" parent="1">
          <mxGeometry x="190" y="1090" width="60" height="30" as="geometry" />
        </mxCell>
        <mxCell id="9QfkAVzxC6964V-UPMeg-162" style="edgeStyle=orthogonalEdgeStyle;rounded=0;orthogonalLoop=1;jettySize=auto;html=1;exitX=0.5;exitY=1;exitDx=0;exitDy=0;exitPerimeter=0;entryX=0.5;entryY=0;entryDx=0;entryDy=0;" edge="1" parent="1" source="9QfkAVzxC6964V-UPMeg-152" target="9QfkAVzxC6964V-UPMeg-161">
          <mxGeometry relative="1" as="geometry" />
        </mxCell>
        <mxCell id="9QfkAVzxC6964V-UPMeg-207" style="edgeStyle=orthogonalEdgeStyle;rounded=0;orthogonalLoop=1;jettySize=auto;html=1;exitX=0;exitY=0.5;exitDx=0;exitDy=0;exitPerimeter=0;entryX=1;entryY=0.5;entryDx=0;entryDy=0;" edge="1" parent="1" source="9QfkAVzxC6964V-UPMeg-152" target="9QfkAVzxC6964V-UPMeg-205">
          <mxGeometry relative="1" as="geometry" />
        </mxCell>
        <mxCell id="9QfkAVzxC6964V-UPMeg-152" value="" style="strokeWidth=2;html=1;shape=mxgraph.flowchart.decision;whiteSpace=wrap;" vertex="1" parent="1">
          <mxGeometry x="242.5" y="1630" width="60" height="60" as="geometry" />
        </mxCell>
        <mxCell id="9QfkAVzxC6964V-UPMeg-153" value="[go back]" style="text;html=1;strokeColor=none;fillColor=none;align=center;verticalAlign=middle;whiteSpace=wrap;rounded=0;" vertex="1" parent="1">
          <mxGeometry x="182.5" y="1620" width="60" height="30" as="geometry" />
        </mxCell>
        <mxCell id="9QfkAVzxC6964V-UPMeg-154" value="[comment]" style="text;html=1;strokeColor=none;fillColor=none;align=center;verticalAlign=middle;whiteSpace=wrap;rounded=0;" vertex="1" parent="1">
          <mxGeometry x="280" y="1690" width="60" height="30" as="geometry" />
        </mxCell>
        <mxCell id="9QfkAVzxC6964V-UPMeg-157" value="B" style="ellipse;whiteSpace=wrap;html=1;aspect=fixed;" vertex="1" parent="1">
          <mxGeometry x="360" y="1118" width="40" height="40" as="geometry" />
        </mxCell>
        <mxCell id="9QfkAVzxC6964V-UPMeg-163" style="edgeStyle=orthogonalEdgeStyle;rounded=0;orthogonalLoop=1;jettySize=auto;html=1;exitX=1;exitY=0.5;exitDx=0;exitDy=0;entryX=0;entryY=0.5;entryDx=0;entryDy=0;" edge="1" parent="1" source="9QfkAVzxC6964V-UPMeg-159" target="9QfkAVzxC6964V-UPMeg-161">
          <mxGeometry relative="1" as="geometry" />
        </mxCell>
        <mxCell id="9QfkAVzxC6964V-UPMeg-159" value="B" style="ellipse;whiteSpace=wrap;html=1;aspect=fixed;" vertex="1" parent="1">
          <mxGeometry x="140" y="1825" width="40" height="40" as="geometry" />
        </mxCell>
        <mxCell id="9QfkAVzxC6964V-UPMeg-165" style="edgeStyle=orthogonalEdgeStyle;rounded=0;orthogonalLoop=1;jettySize=auto;html=1;exitX=1;exitY=0.5;exitDx=0;exitDy=0;entryX=0;entryY=0.5;entryDx=0;entryDy=0;" edge="1" parent="1" source="9QfkAVzxC6964V-UPMeg-161" target="9QfkAVzxC6964V-UPMeg-164">
          <mxGeometry relative="1" as="geometry" />
        </mxCell>
        <mxCell id="9QfkAVzxC6964V-UPMeg-161" value="Leave comment" style="rounded=1;whiteSpace=wrap;html=1;" vertex="1" parent="1">
          <mxGeometry x="212.5" y="1800" width="120" height="90" as="geometry" />
        </mxCell>
        <mxCell id="9QfkAVzxC6964V-UPMeg-167" style="edgeStyle=orthogonalEdgeStyle;rounded=0;orthogonalLoop=1;jettySize=auto;html=1;exitX=1;exitY=0.5;exitDx=0;exitDy=0;entryX=0;entryY=0.5;entryDx=0;entryDy=0;entryPerimeter=0;" edge="1" parent="1" source="9QfkAVzxC6964V-UPMeg-164" target="9QfkAVzxC6964V-UPMeg-166">
          <mxGeometry relative="1" as="geometry" />
        </mxCell>
        <mxCell id="9QfkAVzxC6964V-UPMeg-164" value="Check if guest visited location" style="rounded=1;whiteSpace=wrap;html=1;" vertex="1" parent="1">
          <mxGeometry x="450" y="1800" width="120" height="90" as="geometry" />
        </mxCell>
        <mxCell id="9QfkAVzxC6964V-UPMeg-169" style="edgeStyle=orthogonalEdgeStyle;rounded=0;orthogonalLoop=1;jettySize=auto;html=1;exitX=0.5;exitY=0;exitDx=0;exitDy=0;exitPerimeter=0;entryX=0;entryY=0.5;entryDx=0;entryDy=0;" edge="1" parent="1" source="9QfkAVzxC6964V-UPMeg-166" target="9QfkAVzxC6964V-UPMeg-168">
          <mxGeometry relative="1" as="geometry" />
        </mxCell>
        <mxCell id="9QfkAVzxC6964V-UPMeg-250" style="edgeStyle=orthogonalEdgeStyle;rounded=0;orthogonalLoop=1;jettySize=auto;html=1;exitX=1;exitY=0.5;exitDx=0;exitDy=0;exitPerimeter=0;entryX=0;entryY=0.5;entryDx=0;entryDy=0;entryPerimeter=0;" edge="1" parent="1" source="9QfkAVzxC6964V-UPMeg-166" target="9QfkAVzxC6964V-UPMeg-249">
          <mxGeometry relative="1" as="geometry" />
        </mxCell>
        <mxCell id="9QfkAVzxC6964V-UPMeg-166" value="" style="strokeWidth=2;html=1;shape=mxgraph.flowchart.decision;whiteSpace=wrap;" vertex="1" parent="1">
          <mxGeometry x="620" y="1815" width="60" height="60" as="geometry" />
        </mxCell>
        <mxCell id="9QfkAVzxC6964V-UPMeg-251" style="edgeStyle=orthogonalEdgeStyle;rounded=0;orthogonalLoop=1;jettySize=auto;html=1;exitX=1;exitY=0.5;exitDx=0;exitDy=0;entryX=0.5;entryY=0;entryDx=0;entryDy=0;entryPerimeter=0;" edge="1" parent="1" source="9QfkAVzxC6964V-UPMeg-168" target="9QfkAVzxC6964V-UPMeg-249">
          <mxGeometry relative="1" as="geometry" />
        </mxCell>
        <mxCell id="9QfkAVzxC6964V-UPMeg-168" value="Set &#39;Visited&#39; to comment" style="rounded=1;whiteSpace=wrap;html=1;" vertex="1" parent="1">
          <mxGeometry x="727" y="1675" width="120" height="90" as="geometry" />
        </mxCell>
        <mxCell id="9QfkAVzxC6964V-UPMeg-179" style="edgeStyle=orthogonalEdgeStyle;rounded=0;orthogonalLoop=1;jettySize=auto;html=1;exitX=0.5;exitY=1;exitDx=0;exitDy=0;entryX=0.5;entryY=0;entryDx=0;entryDy=0;entryPerimeter=0;" edge="1" parent="1" target="9QfkAVzxC6964V-UPMeg-176">
          <mxGeometry relative="1" as="geometry">
            <mxPoint x="960" y="1980" as="sourcePoint" />
          </mxGeometry>
        </mxCell>
        <mxCell id="9QfkAVzxC6964V-UPMeg-180" style="edgeStyle=orthogonalEdgeStyle;rounded=0;orthogonalLoop=1;jettySize=auto;html=1;exitX=0.5;exitY=1;exitDx=0;exitDy=0;exitPerimeter=0;entryX=0.5;entryY=0;entryDx=0;entryDy=0;" edge="1" parent="1" source="9QfkAVzxC6964V-UPMeg-176" target="9QfkAVzxC6964V-UPMeg-178">
          <mxGeometry relative="1" as="geometry" />
        </mxCell>
        <mxCell id="9QfkAVzxC6964V-UPMeg-182" style="edgeStyle=orthogonalEdgeStyle;rounded=0;orthogonalLoop=1;jettySize=auto;html=1;exitX=0;exitY=0.5;exitDx=0;exitDy=0;exitPerimeter=0;entryX=1;entryY=0.5;entryDx=0;entryDy=0;entryPerimeter=0;" edge="1" parent="1" source="9QfkAVzxC6964V-UPMeg-176" target="9QfkAVzxC6964V-UPMeg-243">
          <mxGeometry relative="1" as="geometry">
            <mxPoint x="850" y="2050" as="targetPoint" />
          </mxGeometry>
        </mxCell>
        <mxCell id="9QfkAVzxC6964V-UPMeg-176" value="" style="strokeWidth=2;html=1;shape=mxgraph.flowchart.decision;whiteSpace=wrap;" vertex="1" parent="1">
          <mxGeometry x="930" y="2020" width="60" height="60" as="geometry" />
        </mxCell>
        <mxCell id="9QfkAVzxC6964V-UPMeg-238" style="edgeStyle=orthogonalEdgeStyle;rounded=0;orthogonalLoop=1;jettySize=auto;html=1;exitX=0;exitY=0.5;exitDx=0;exitDy=0;entryX=0.5;entryY=1;entryDx=0;entryDy=0;entryPerimeter=0;" edge="1" parent="1" source="9QfkAVzxC6964V-UPMeg-178" target="9QfkAVzxC6964V-UPMeg-243">
          <mxGeometry relative="1" as="geometry">
            <mxPoint x="790" y="2095" as="targetPoint" />
          </mxGeometry>
        </mxCell>
        <mxCell id="9QfkAVzxC6964V-UPMeg-178" value="Set &#39;Very useful&#39;&lt;br&gt;to forum" style="rounded=1;whiteSpace=wrap;html=1;" vertex="1" parent="1">
          <mxGeometry x="900" y="2110" width="120" height="90" as="geometry" />
        </mxCell>
        <mxCell id="9QfkAVzxC6964V-UPMeg-184" value="No" style="text;html=1;strokeColor=none;fillColor=none;align=center;verticalAlign=middle;whiteSpace=wrap;rounded=0;" vertex="1" parent="1">
          <mxGeometry x="880" y="2020" width="60" height="30" as="geometry" />
        </mxCell>
        <mxCell id="9QfkAVzxC6964V-UPMeg-197" style="edgeStyle=orthogonalEdgeStyle;rounded=0;orthogonalLoop=1;jettySize=auto;html=1;exitX=0;exitY=0.5;exitDx=0;exitDy=0;entryX=1;entryY=0.25;entryDx=0;entryDy=0;" edge="1" parent="1" source="9QfkAVzxC6964V-UPMeg-194" target="9QfkAVzxC6964V-UPMeg-147">
          <mxGeometry relative="1" as="geometry" />
        </mxCell>
        <mxCell id="9QfkAVzxC6964V-UPMeg-194" value="D" style="ellipse;whiteSpace=wrap;html=1;aspect=fixed;" vertex="1" parent="1">
          <mxGeometry x="440" y="1510" width="40" height="40" as="geometry" />
        </mxCell>
        <mxCell id="9QfkAVzxC6964V-UPMeg-264" style="edgeStyle=orthogonalEdgeStyle;rounded=0;orthogonalLoop=1;jettySize=auto;html=1;exitX=0.5;exitY=1;exitDx=0;exitDy=0;entryX=0.5;entryY=0;entryDx=0;entryDy=0;entryPerimeter=0;" edge="1" parent="1" source="9QfkAVzxC6964V-UPMeg-198" target="9QfkAVzxC6964V-UPMeg-262">
          <mxGeometry relative="1" as="geometry" />
        </mxCell>
        <mxCell id="9QfkAVzxC6964V-UPMeg-198" value="C" style="ellipse;whiteSpace=wrap;html=1;aspect=fixed;" vertex="1" parent="1">
          <mxGeometry x="425" y="915" width="40" height="40" as="geometry" />
        </mxCell>
        <mxCell id="9QfkAVzxC6964V-UPMeg-271" style="edgeStyle=orthogonalEdgeStyle;rounded=0;orthogonalLoop=1;jettySize=auto;html=1;exitX=0.5;exitY=1;exitDx=0;exitDy=0;entryX=0.5;entryY=0;entryDx=0;entryDy=0;entryPerimeter=0;" edge="1" parent="1" source="9QfkAVzxC6964V-UPMeg-200" target="9QfkAVzxC6964V-UPMeg-268">
          <mxGeometry relative="1" as="geometry" />
        </mxCell>
        <mxCell id="9QfkAVzxC6964V-UPMeg-200" value="Open forum" style="rounded=1;whiteSpace=wrap;html=1;" vertex="1" parent="1">
          <mxGeometry x="1245" y="370" width="120" height="90" as="geometry" />
        </mxCell>
        <mxCell id="9QfkAVzxC6964V-UPMeg-203" value="D" style="ellipse;whiteSpace=wrap;html=1;aspect=fixed;" vertex="1" parent="1">
          <mxGeometry x="140" y="1118" width="40" height="40" as="geometry" />
        </mxCell>
        <mxCell id="9QfkAVzxC6964V-UPMeg-205" value="D" style="ellipse;whiteSpace=wrap;html=1;aspect=fixed;" vertex="1" parent="1">
          <mxGeometry x="140" y="1640" width="40" height="40" as="geometry" />
        </mxCell>
        <mxCell id="9QfkAVzxC6964V-UPMeg-232" style="edgeStyle=orthogonalEdgeStyle;rounded=0;orthogonalLoop=1;jettySize=auto;html=1;exitX=0.5;exitY=1;exitDx=0;exitDy=0;entryX=0.5;entryY=0;entryDx=0;entryDy=0;entryPerimeter=0;" edge="1" parent="1" source="9QfkAVzxC6964V-UPMeg-231" target="9QfkAVzxC6964V-UPMeg-83">
          <mxGeometry relative="1" as="geometry" />
        </mxCell>
        <mxCell id="9QfkAVzxC6964V-UPMeg-231" value="Forum view" style="rounded=1;whiteSpace=wrap;html=1;" vertex="1" parent="1">
          <mxGeometry x="175" y="80" width="120" height="90" as="geometry" />
        </mxCell>
        <mxCell id="9QfkAVzxC6964V-UPMeg-234" style="edgeStyle=orthogonalEdgeStyle;rounded=0;orthogonalLoop=1;jettySize=auto;html=1;exitX=0;exitY=0.5;exitDx=0;exitDy=0;entryX=1;entryY=0.5;entryDx=0;entryDy=0;" edge="1" parent="1" source="9QfkAVzxC6964V-UPMeg-233" target="9QfkAVzxC6964V-UPMeg-231">
          <mxGeometry relative="1" as="geometry" />
        </mxCell>
        <mxCell id="9QfkAVzxC6964V-UPMeg-233" value="D" style="ellipse;whiteSpace=wrap;html=1;aspect=fixed;" vertex="1" parent="1">
          <mxGeometry x="340" y="105" width="40" height="40" as="geometry" />
        </mxCell>
        <mxCell id="9QfkAVzxC6964V-UPMeg-236" value="D" style="ellipse;whiteSpace=wrap;html=1;aspect=fixed;" vertex="1" parent="1">
          <mxGeometry x="140" y="1405" width="40" height="40" as="geometry" />
        </mxCell>
        <mxCell id="9QfkAVzxC6964V-UPMeg-247" style="edgeStyle=orthogonalEdgeStyle;rounded=0;orthogonalLoop=1;jettySize=auto;html=1;exitX=0.5;exitY=1;exitDx=0;exitDy=0;entryX=0.5;entryY=0;entryDx=0;entryDy=0;" edge="1" parent="1" source="9QfkAVzxC6964V-UPMeg-239" target="9QfkAVzxC6964V-UPMeg-246">
          <mxGeometry relative="1" as="geometry" />
        </mxCell>
        <mxCell id="9QfkAVzxC6964V-UPMeg-239" value="Update list with comments" style="rounded=1;whiteSpace=wrap;html=1;" vertex="1" parent="1">
          <mxGeometry x="440" y="2005" width="120" height="90" as="geometry" />
        </mxCell>
        <mxCell id="9QfkAVzxC6964V-UPMeg-245" style="edgeStyle=orthogonalEdgeStyle;rounded=0;orthogonalLoop=1;jettySize=auto;html=1;exitX=0;exitY=0.5;exitDx=0;exitDy=0;entryX=1;entryY=0.5;entryDx=0;entryDy=0;" edge="1" parent="1" source="9QfkAVzxC6964V-UPMeg-242" target="9QfkAVzxC6964V-UPMeg-239">
          <mxGeometry relative="1" as="geometry" />
        </mxCell>
        <mxCell id="9QfkAVzxC6964V-UPMeg-242" value="Show comments" style="rounded=1;whiteSpace=wrap;html=1;" vertex="1" parent="1">
          <mxGeometry x="600" y="2005" width="120" height="90" as="geometry" />
        </mxCell>
        <mxCell id="9QfkAVzxC6964V-UPMeg-244" style="edgeStyle=orthogonalEdgeStyle;rounded=0;orthogonalLoop=1;jettySize=auto;html=1;exitX=0;exitY=0.5;exitDx=0;exitDy=0;exitPerimeter=0;entryX=1;entryY=0.5;entryDx=0;entryDy=0;" edge="1" parent="1" source="9QfkAVzxC6964V-UPMeg-243" target="9QfkAVzxC6964V-UPMeg-242">
          <mxGeometry relative="1" as="geometry" />
        </mxCell>
        <mxCell id="9QfkAVzxC6964V-UPMeg-243" value="" style="strokeWidth=2;html=1;shape=mxgraph.flowchart.decision;whiteSpace=wrap;" vertex="1" parent="1">
          <mxGeometry x="757" y="2020" width="60" height="60" as="geometry" />
        </mxCell>
        <mxCell id="9QfkAVzxC6964V-UPMeg-246" value="E" style="ellipse;whiteSpace=wrap;html=1;aspect=fixed;" vertex="1" parent="1">
          <mxGeometry x="480" y="2135" width="40" height="40" as="geometry" />
        </mxCell>
        <mxCell id="9QfkAVzxC6964V-UPMeg-248" value="Check if forum is useful" style="rounded=1;whiteSpace=wrap;html=1;" vertex="1" parent="1">
          <mxGeometry x="900" y="1890" width="120" height="90" as="geometry" />
        </mxCell>
        <mxCell id="9QfkAVzxC6964V-UPMeg-273" style="edgeStyle=orthogonalEdgeStyle;rounded=0;orthogonalLoop=1;jettySize=auto;html=1;exitX=0.5;exitY=1;exitDx=0;exitDy=0;exitPerimeter=0;entryX=0;entryY=0.5;entryDx=0;entryDy=0;" edge="1" parent="1" source="9QfkAVzxC6964V-UPMeg-249" target="9QfkAVzxC6964V-UPMeg-248">
          <mxGeometry relative="1" as="geometry" />
        </mxCell>
        <mxCell id="9QfkAVzxC6964V-UPMeg-249" value="" style="strokeWidth=2;html=1;shape=mxgraph.flowchart.decision;whiteSpace=wrap;" vertex="1" parent="1">
          <mxGeometry x="860" y="1805" width="60" height="60" as="geometry" />
        </mxCell>
        <mxCell id="9QfkAVzxC6964V-UPMeg-260" style="edgeStyle=orthogonalEdgeStyle;rounded=0;orthogonalLoop=1;jettySize=auto;html=1;exitX=1;exitY=0.5;exitDx=0;exitDy=0;" edge="1" parent="1" source="9QfkAVzxC6964V-UPMeg-255" target="9QfkAVzxC6964V-UPMeg-316">
          <mxGeometry relative="1" as="geometry" />
        </mxCell>
        <mxCell id="9QfkAVzxC6964V-UPMeg-255" value="A" style="ellipse;whiteSpace=wrap;html=1;aspect=fixed;" vertex="1" parent="1">
          <mxGeometry x="677" y="270" width="40" height="40" as="geometry" />
        </mxCell>
        <mxCell id="9QfkAVzxC6964V-UPMeg-261" style="edgeStyle=orthogonalEdgeStyle;rounded=0;orthogonalLoop=1;jettySize=auto;html=1;exitX=0.5;exitY=0;exitDx=0;exitDy=0;entryX=0.5;entryY=0;entryDx=0;entryDy=0;entryPerimeter=0;" edge="1" parent="1" source="9QfkAVzxC6964V-UPMeg-257" target="9QfkAVzxC6964V-UPMeg-316">
          <mxGeometry relative="1" as="geometry" />
        </mxCell>
        <mxCell id="9QfkAVzxC6964V-UPMeg-257" value="E" style="ellipse;whiteSpace=wrap;html=1;aspect=fixed;" vertex="1" parent="1">
          <mxGeometry x="880" y="185" width="40" height="40" as="geometry" />
        </mxCell>
        <mxCell id="9QfkAVzxC6964V-UPMeg-265" style="edgeStyle=orthogonalEdgeStyle;rounded=0;orthogonalLoop=1;jettySize=auto;html=1;exitX=0;exitY=0.5;exitDx=0;exitDy=0;exitPerimeter=0;entryX=1;entryY=0.5;entryDx=0;entryDy=0;" edge="1" parent="1" source="9QfkAVzxC6964V-UPMeg-262" target="9QfkAVzxC6964V-UPMeg-117">
          <mxGeometry relative="1" as="geometry" />
        </mxCell>
        <mxCell id="9QfkAVzxC6964V-UPMeg-262" value="" style="strokeWidth=2;html=1;shape=mxgraph.flowchart.decision;whiteSpace=wrap;" vertex="1" parent="1">
          <mxGeometry x="410" y="985" width="60" height="60" as="geometry" />
        </mxCell>
        <mxCell id="9QfkAVzxC6964V-UPMeg-266" value="" style="ellipse;html=1;shape=endState;fillColor=#000000;strokeColor=#ff0000;" vertex="1" parent="1">
          <mxGeometry x="960" y="360" width="30" height="30" as="geometry" />
        </mxCell>
        <mxCell id="9QfkAVzxC6964V-UPMeg-275" style="edgeStyle=orthogonalEdgeStyle;rounded=0;orthogonalLoop=1;jettySize=auto;html=1;exitX=0;exitY=0.5;exitDx=0;exitDy=0;exitPerimeter=0;entryX=0.5;entryY=0;entryDx=0;entryDy=0;" edge="1" parent="1" source="9QfkAVzxC6964V-UPMeg-268" target="9QfkAVzxC6964V-UPMeg-274">
          <mxGeometry relative="1" as="geometry" />
        </mxCell>
        <mxCell id="9QfkAVzxC6964V-UPMeg-279" style="edgeStyle=orthogonalEdgeStyle;rounded=0;orthogonalLoop=1;jettySize=auto;html=1;exitX=1;exitY=0.5;exitDx=0;exitDy=0;exitPerimeter=0;entryX=1;entryY=0.5;entryDx=0;entryDy=0;" edge="1" parent="1" source="9QfkAVzxC6964V-UPMeg-268" target="9QfkAVzxC6964V-UPMeg-278">
          <mxGeometry relative="1" as="geometry" />
        </mxCell>
        <mxCell id="9QfkAVzxC6964V-UPMeg-268" value="" style="strokeWidth=2;html=1;shape=mxgraph.flowchart.decision;whiteSpace=wrap;" vertex="1" parent="1">
          <mxGeometry x="1282.5" y="530" width="45" height="40" as="geometry" />
        </mxCell>
        <mxCell id="9QfkAVzxC6964V-UPMeg-269" value="[comment]" style="text;html=1;strokeColor=none;fillColor=none;align=center;verticalAlign=middle;whiteSpace=wrap;rounded=0;" vertex="1" parent="1">
          <mxGeometry x="1222.5" y="510" width="60" height="30" as="geometry" />
        </mxCell>
        <mxCell id="9QfkAVzxC6964V-UPMeg-270" value="[report]" style="text;html=1;strokeColor=none;fillColor=none;align=center;verticalAlign=middle;whiteSpace=wrap;rounded=0;" vertex="1" parent="1">
          <mxGeometry x="1327.5" y="510" width="60" height="30" as="geometry" />
        </mxCell>
        <mxCell id="9QfkAVzxC6964V-UPMeg-274" value="F" style="ellipse;whiteSpace=wrap;html=1;aspect=fixed;" vertex="1" parent="1">
          <mxGeometry x="1230" y="630" width="40" height="40" as="geometry" />
        </mxCell>
        <mxCell id="9QfkAVzxC6964V-UPMeg-277" style="edgeStyle=orthogonalEdgeStyle;rounded=0;orthogonalLoop=1;jettySize=auto;html=1;exitX=0;exitY=0.5;exitDx=0;exitDy=0;entryX=1;entryY=0.5;entryDx=0;entryDy=0;entryPerimeter=0;" edge="1" parent="1" source="9QfkAVzxC6964V-UPMeg-276" target="9QfkAVzxC6964V-UPMeg-249">
          <mxGeometry relative="1" as="geometry" />
        </mxCell>
        <mxCell id="9QfkAVzxC6964V-UPMeg-276" value="F" style="ellipse;whiteSpace=wrap;html=1;aspect=fixed;" vertex="1" parent="1">
          <mxGeometry x="970" y="1815" width="40" height="40" as="geometry" />
        </mxCell>
        <mxCell id="9QfkAVzxC6964V-UPMeg-282" style="edgeStyle=orthogonalEdgeStyle;rounded=0;orthogonalLoop=1;jettySize=auto;html=1;exitX=0.75;exitY=1;exitDx=0;exitDy=0;entryX=0.5;entryY=0;entryDx=0;entryDy=0;entryPerimeter=0;" edge="1" parent="1" source="9QfkAVzxC6964V-UPMeg-278" target="9QfkAVzxC6964V-UPMeg-280">
          <mxGeometry relative="1" as="geometry" />
        </mxCell>
        <mxCell id="9QfkAVzxC6964V-UPMeg-278" value="Check if guest visited" style="rounded=1;whiteSpace=wrap;html=1;" vertex="1" parent="1">
          <mxGeometry x="1040" y="720" width="120" height="90" as="geometry" />
        </mxCell>
        <mxCell id="9QfkAVzxC6964V-UPMeg-284" style="edgeStyle=orthogonalEdgeStyle;rounded=0;orthogonalLoop=1;jettySize=auto;html=1;exitX=1;exitY=0.5;exitDx=0;exitDy=0;exitPerimeter=0;entryX=0;entryY=0.5;entryDx=0;entryDy=0;" edge="1" parent="1" source="9QfkAVzxC6964V-UPMeg-280" target="9QfkAVzxC6964V-UPMeg-283">
          <mxGeometry relative="1" as="geometry" />
        </mxCell>
        <mxCell id="9QfkAVzxC6964V-UPMeg-291" style="edgeStyle=orthogonalEdgeStyle;rounded=0;orthogonalLoop=1;jettySize=auto;html=1;exitX=0.5;exitY=1;exitDx=0;exitDy=0;exitPerimeter=0;entryX=0.5;entryY=0;entryDx=0;entryDy=0;entryPerimeter=0;" edge="1" parent="1" source="9QfkAVzxC6964V-UPMeg-280" target="9QfkAVzxC6964V-UPMeg-289">
          <mxGeometry relative="1" as="geometry" />
        </mxCell>
        <mxCell id="9QfkAVzxC6964V-UPMeg-280" value="" style="strokeWidth=2;html=1;shape=mxgraph.flowchart.decision;whiteSpace=wrap;" vertex="1" parent="1">
          <mxGeometry x="1090" y="855" width="60" height="60" as="geometry" />
        </mxCell>
        <mxCell id="9QfkAVzxC6964V-UPMeg-281" value="Visited?" style="text;html=1;strokeColor=none;fillColor=none;align=center;verticalAlign=middle;whiteSpace=wrap;rounded=0;" vertex="1" parent="1">
          <mxGeometry x="1030" y="870" width="60" height="30" as="geometry" />
        </mxCell>
        <mxCell id="9QfkAVzxC6964V-UPMeg-290" style="edgeStyle=orthogonalEdgeStyle;rounded=0;orthogonalLoop=1;jettySize=auto;html=1;exitX=0.5;exitY=1;exitDx=0;exitDy=0;entryX=1;entryY=0.5;entryDx=0;entryDy=0;entryPerimeter=0;" edge="1" parent="1" source="9QfkAVzxC6964V-UPMeg-283" target="9QfkAVzxC6964V-UPMeg-289">
          <mxGeometry relative="1" as="geometry" />
        </mxCell>
        <mxCell id="9QfkAVzxC6964V-UPMeg-283" value="Report comment" style="rounded=1;whiteSpace=wrap;html=1;" vertex="1" parent="1">
          <mxGeometry x="1240" y="840" width="120" height="90" as="geometry" />
        </mxCell>
        <mxCell id="9QfkAVzxC6964V-UPMeg-285" value="Yes" style="text;html=1;strokeColor=none;fillColor=none;align=center;verticalAlign=middle;whiteSpace=wrap;rounded=0;" vertex="1" parent="1">
          <mxGeometry x="1070" y="915" width="60" height="30" as="geometry" />
        </mxCell>
        <mxCell id="9QfkAVzxC6964V-UPMeg-286" value="No" style="text;html=1;strokeColor=none;fillColor=none;align=center;verticalAlign=middle;whiteSpace=wrap;rounded=0;" vertex="1" parent="1">
          <mxGeometry x="1140" y="855" width="60" height="30" as="geometry" />
        </mxCell>
        <mxCell id="9QfkAVzxC6964V-UPMeg-293" style="edgeStyle=orthogonalEdgeStyle;rounded=0;orthogonalLoop=1;jettySize=auto;html=1;exitX=0.5;exitY=1;exitDx=0;exitDy=0;exitPerimeter=0;entryX=0.5;entryY=0;entryDx=0;entryDy=0;" edge="1" parent="1" source="9QfkAVzxC6964V-UPMeg-289" target="9QfkAVzxC6964V-UPMeg-292">
          <mxGeometry relative="1" as="geometry" />
        </mxCell>
        <mxCell id="9QfkAVzxC6964V-UPMeg-289" value="" style="strokeWidth=2;html=1;shape=mxgraph.flowchart.decision;whiteSpace=wrap;" vertex="1" parent="1">
          <mxGeometry x="1090" y="1060" width="60" height="60" as="geometry" />
        </mxCell>
        <mxCell id="9QfkAVzxC6964V-UPMeg-292" value="G" style="ellipse;whiteSpace=wrap;html=1;aspect=fixed;" vertex="1" parent="1">
          <mxGeometry x="1100" y="1148" width="40" height="40" as="geometry" />
        </mxCell>
        <mxCell id="9QfkAVzxC6964V-UPMeg-295" style="edgeStyle=orthogonalEdgeStyle;rounded=0;orthogonalLoop=1;jettySize=auto;html=1;exitX=0.5;exitY=1;exitDx=0;exitDy=0;entryX=0.5;entryY=0;entryDx=0;entryDy=0;entryPerimeter=0;" edge="1" parent="1" source="9QfkAVzxC6964V-UPMeg-294" target="9QfkAVzxC6964V-UPMeg-243">
          <mxGeometry relative="1" as="geometry" />
        </mxCell>
        <mxCell id="9QfkAVzxC6964V-UPMeg-294" value="G" style="ellipse;whiteSpace=wrap;html=1;aspect=fixed;" vertex="1" parent="1">
          <mxGeometry x="767" y="1915" width="40" height="40" as="geometry" />
        </mxCell>
        <mxCell id="9QfkAVzxC6964V-UPMeg-301" style="edgeStyle=orthogonalEdgeStyle;rounded=0;orthogonalLoop=1;jettySize=auto;html=1;exitX=1;exitY=0.5;exitDx=0;exitDy=0;entryX=0;entryY=0.5;entryDx=0;entryDy=0;entryPerimeter=0;" edge="1" parent="1" source="9QfkAVzxC6964V-UPMeg-298" target="9QfkAVzxC6964V-UPMeg-300">
          <mxGeometry relative="1" as="geometry" />
        </mxCell>
        <mxCell id="9QfkAVzxC6964V-UPMeg-298" value="Check if owner has accommodations on new forum location" style="rounded=1;whiteSpace=wrap;html=1;" vertex="1" parent="1">
          <mxGeometry x="430" y="70" width="120" height="90" as="geometry" />
        </mxCell>
        <mxCell id="9QfkAVzxC6964V-UPMeg-306" style="edgeStyle=orthogonalEdgeStyle;rounded=0;orthogonalLoop=1;jettySize=auto;html=1;exitX=1;exitY=0.5;exitDx=0;exitDy=0;exitPerimeter=0;entryX=0;entryY=0.5;entryDx=0;entryDy=0;" edge="1" parent="1" source="9QfkAVzxC6964V-UPMeg-300" target="9QfkAVzxC6964V-UPMeg-1">
          <mxGeometry relative="1" as="geometry" />
        </mxCell>
        <mxCell id="9QfkAVzxC6964V-UPMeg-309" style="edgeStyle=orthogonalEdgeStyle;rounded=0;orthogonalLoop=1;jettySize=auto;html=1;exitX=0.5;exitY=1;exitDx=0;exitDy=0;exitPerimeter=0;entryX=0;entryY=0.5;entryDx=0;entryDy=0;entryPerimeter=0;" edge="1" parent="1" source="9QfkAVzxC6964V-UPMeg-300" target="9QfkAVzxC6964V-UPMeg-316">
          <mxGeometry relative="1" as="geometry" />
        </mxCell>
        <mxCell id="9QfkAVzxC6964V-UPMeg-300" value="" style="strokeWidth=2;html=1;shape=mxgraph.flowchart.decision;whiteSpace=wrap;" vertex="1" parent="1">
          <mxGeometry x="600" y="85" width="60" height="60" as="geometry" />
        </mxCell>
        <mxCell id="9QfkAVzxC6964V-UPMeg-302" value="True?" style="text;html=1;strokeColor=none;fillColor=none;align=center;verticalAlign=middle;whiteSpace=wrap;rounded=0;" vertex="1" parent="1">
          <mxGeometry x="600" y="55" width="60" height="30" as="geometry" />
        </mxCell>
        <mxCell id="9QfkAVzxC6964V-UPMeg-304" value="Yes" style="text;html=1;strokeColor=none;fillColor=none;align=center;verticalAlign=middle;whiteSpace=wrap;rounded=0;" vertex="1" parent="1">
          <mxGeometry x="650" y="80" width="60" height="30" as="geometry" />
        </mxCell>
        <mxCell id="9QfkAVzxC6964V-UPMeg-310" value="No" style="text;html=1;strokeColor=none;fillColor=none;align=center;verticalAlign=middle;whiteSpace=wrap;rounded=0;" vertex="1" parent="1">
          <mxGeometry x="580" y="140" width="60" height="30" as="geometry" />
        </mxCell>
        <mxCell id="9QfkAVzxC6964V-UPMeg-313" style="edgeStyle=orthogonalEdgeStyle;rounded=0;orthogonalLoop=1;jettySize=auto;html=1;exitX=1;exitY=0.5;exitDx=0;exitDy=0;exitPerimeter=0;entryX=0;entryY=0.5;entryDx=0;entryDy=0;" edge="1" parent="1" source="9QfkAVzxC6964V-UPMeg-311" target="9QfkAVzxC6964V-UPMeg-5">
          <mxGeometry relative="1" as="geometry" />
        </mxCell>
        <mxCell id="9QfkAVzxC6964V-UPMeg-314" style="edgeStyle=orthogonalEdgeStyle;rounded=0;orthogonalLoop=1;jettySize=auto;html=1;exitX=0.5;exitY=1;exitDx=0;exitDy=0;exitPerimeter=0;entryX=1;entryY=0.5;entryDx=0;entryDy=0;entryPerimeter=0;" edge="1" parent="1" source="9QfkAVzxC6964V-UPMeg-311" target="9QfkAVzxC6964V-UPMeg-316">
          <mxGeometry relative="1" as="geometry" />
        </mxCell>
        <mxCell id="9QfkAVzxC6964V-UPMeg-311" value="" style="strokeWidth=2;html=1;shape=mxgraph.flowchart.decision;whiteSpace=wrap;" vertex="1" parent="1">
          <mxGeometry x="990" y="85" width="60" height="60" as="geometry" />
        </mxCell>
        <mxCell id="9QfkAVzxC6964V-UPMeg-317" style="edgeStyle=orthogonalEdgeStyle;rounded=0;orthogonalLoop=1;jettySize=auto;html=1;exitX=0.5;exitY=1;exitDx=0;exitDy=0;exitPerimeter=0;entryX=0.636;entryY=0.038;entryDx=0;entryDy=0;entryPerimeter=0;" edge="1" parent="1" source="9QfkAVzxC6964V-UPMeg-316" target="9QfkAVzxC6964V-UPMeg-7">
          <mxGeometry relative="1" as="geometry" />
        </mxCell>
        <mxCell id="9QfkAVzxC6964V-UPMeg-316" value="" style="strokeWidth=2;html=1;shape=mxgraph.flowchart.decision;whiteSpace=wrap;" vertex="1" parent="1">
          <mxGeometry x="787" y="210" width="60" height="60" as="geometry" />
        </mxCell>
      </root>
    </mxGraphModel>
  </diagram>
</mxfile>
